  <svg version="1.1" baseProfile="full" width="455" height="455" xmlns="http://www.w3.org/2000/svg">

  <!-- legend -->
  <text text-anchor="middle" x="50%" y="35" font-size="17" fill="black">figure15</text>'

  <!-- bordures exterieures -->
  <rect x="0" y="52" width="100%" height="388" fill="gray" stroke="gray"></rect>

  <svg  x="2" y="54" width="451" viewBox="0 0 455 455">
    <!-- white background -->
    <rect x="0" y="0" width="100%" height="385" fill="white" stroke="white"></rect>
    <!-- middle separator line -->
    <rect x="0" y="0" width="100%" height="385" fill="none" stroke="gray" stroke-width="2"></rect>

    <rect x="225" y="0" width="4" height="385" fill="gray" stroke="gray" stroke-width="2"></rect>
    <polygon points="0,0 35,0 17,175" fill="white" stroke="gray" /><polygon points="0,385 35,385 17,210" fill="gray" stroke="gray" /><polygon points="35,0 70,0 52,175" fill="gray" stroke="gray" /><polygon points="35,385 70,385 52,210" fill="white" stroke="gray" /><polygon points="70,0 105,0 87,175" fill="white" stroke="gray" /><polygon points="70,385 105,385 87,210" fill="gray" stroke="gray" /><polygon points="105,0 140,0 122,175" fill="gray" stroke="gray" /><polygon points="105,385 140,385 122,210" fill="white" stroke="gray" /><polygon points="140,0 175,0 157,175" fill="white" stroke="gray" /><polygon points="140,385 175,385 157,210" fill="gray" stroke="gray" /><polygon points="175,0 210,0 192,175" fill="gray" stroke="gray" /><polygon points="175,385 210,385 192,210" fill="white" stroke="gray" /><polygon points="245,0 280,0 262,175" fill="white" stroke="gray" /><polygon points="245,385 280,385 262,210" fill="gray" stroke="gray" /><polygon points="280,0 315,0 297,175" fill="gray" stroke="gray" /><polygon points="280,385 315,385 297,210" fill="white" stroke="gray" /><polygon points="315,0 350,0 332,175" fill="white" stroke="gray" /><polygon points="315,385 350,385 332,210" fill="gray" stroke="gray" /><polygon points="350,0 385,0 367,175" fill="gray" stroke="gray" /><polygon points="350,385 385,385 367,210" fill="white" stroke="gray" /><polygon points="385,0 420,0 402,175" fill="white" stroke="gray" /><polygon points="385,385 420,385 402,210" fill="gray" stroke="gray" /><polygon points="420,0 455,0 437,175" fill="gray" stroke="gray" /><polygon points="420,385 455,385 437,210" fill="white" stroke="gray" /><circle cx="298" cy="17" r="17" stroke="black" fill="white" /><circle cx="263" cy="17" r="17" stroke="black" fill="white" /><circle cx="193" cy="17" r="17" stroke="black" fill="white" /><circle cx="193" cy="52" r="17" stroke="black" fill="white" /><circle cx="193" cy="87" r="17" stroke="black" fill="white" /><circle cx="158" cy="17" r="17" stroke="black" fill="white" /><circle cx="158" cy="52" r="17" stroke="black" fill="white" /><circle cx="158" cy="87" r="17" stroke="black" fill="white" /><circle cx="123" cy="17" r="17" stroke="black" fill="white" /><circle cx="123" cy="52" r="17" stroke="black" fill="white" /><circle cx="123" cy="87" r="17" stroke="black" fill="white" /><circle cx="88" cy="17" r="17" stroke="black" fill="white" /><circle cx="53" cy="17" r="17" stroke="black" fill="white" /><circle cx="18" cy="17" r="17" stroke="black" fill="white" /><circle cx="18" cy="52" r="17" stroke="black" fill="white" />
  </svg>

</svg>
